<?xml version="1.0" standalone="no"?>
<!DOCTYPE svg PUBLIC "-//W3C//DTD SVG 20010904//EN"
 "http://www.w3.org/TR/2001/REC-SVG-20010904/DTD/svg10.dtd">
<svg version="1.0" xmlns="http://www.w3.org/2000/svg"
 width="16.000000pt" height="16.000000pt" viewBox="0 0 16.000000 16.000000"
 preserveAspectRatio="xMidYMid meet">
<metadata>
Created by potrace 1.11, written by Peter Selinger 2001-2013
</metadata>
<g transform="translate(0.000000,16.000000) scale(0.007442,-0.007442)"
fill="#000000" stroke="none">
<path d="M774 1946 c-35 -15 -44 -32 -44 -81 0 -43 27 -74 71 -81 28 -5 41 -1
67 21 78 66 0 183 -94 141z"/>
<path d="M1142 1764 c-91 -16 -191 -54 -267 -100 l-58 -35 -78 41 c-97 50
-238 88 -349 92 -81 3 -85 2 -88 -18 -3 -19 3 -23 50 -29 119 -16 264 -75 342
-138 l30 -24 -46 -59 c-162 -211 -193 -474 -85 -716 30 -66 77 -139 120 -185
l29 -31 -33 -31 c-56 -50 -147 -90 -252 -111 -55 -11 -112 -20 -128 -20 -22 0
-29 -5 -29 -20 0 -18 5 -19 98 -14 141 8 241 31 340 80 l87 42 55 -34 c108
-66 323 -109 440 -87 39 7 45 12 45 33 0 25 -2 25 -100 31 -55 4 -118 12 -140
19 -45 14 -129 67 -163 103 l-23 24 51 67 c66 88 105 173 126 276 43 212 -23
447 -168 596 l-40 41 39 32 c90 75 238 117 366 104 l57 -6 0 40 c0 34 -4 42
-22 47 -36 9 -126 5 -206 -10z m-284 -391 c59 -118 67 -156 67 -318 0 -118 -4
-162 -18 -205 -24 -73 -59 -150 -67 -150 -14 0 -71 142 -85 211 -19 89 -19
235 -1 331 13 68 58 188 70 188 3 0 19 -26 34 -57z"/>
</g>
</svg>
